# xmcd
# 
# Track frame offsets:
#     150
#     12570
#     32215
#     50472
#     69835
#     85167
#     101385
#     129182
#     148195
#     168305
#     186522
# 
# Disc length: 3895
# 
# Revision: 1
# Processed by: cddbd v1.5.2PL0 Copyright (c) Steve Scherf et al.
# Submitted via: fre:ac v1.0.17
# 
DISCID=910f350b
DTITLE=ABBA - Rarities
DYEAR=2005
DGENRE=Classical
TTITLE0=Waterloo (Alternate Mix)
TTITLE1=Medley (Pick a Bale of Cotton - On Top of Old Smokey - Midnight Special (Orig...
TTITLE2=Thank You for the Music (Doris Day Version)
TTITLE3=Summer Night City (Full Length Version)
TTITLE4=Lovelight (Alternative Mix)
TTITLE5=Dream World
TTITLE6=Voulez-Vous (Extended Remix)
TTITLE7=On And On And On (Full Length Version)
TTITLE8=Put on Your White Sombrero
TTITLE9=I Am the City
TTITLE10=ABBA Undeleted (Medley of Outtakes)
EXTD=
EXTT0=
EXTT1=
EXTT2=
EXTT3=
EXTT4=
EXTT5=
EXTT6=
EXTT7=
EXTT8=
EXTT9=
EXTT10=
PLAYORDER=
